<svg xmlns="http://www.w3.org/2000/svg" width="20" height="18" viewBox="0 0 20 18">
  <metadata><?xpacket begin="﻿" id="W5M0MpCehiHzreSzNTczkc9d"?>
<x:xmpmeta xmlns:x="adobe:ns:meta/" x:xmptk="Adobe XMP Core 5.6-c140 79.160451, 2017/05/06-01:08:21        ">
   <rdf:RDF xmlns:rdf="http://www.w3.org/1999/02/22-rdf-syntax-ns#">
      <rdf:Description rdf:about=""/>
   </rdf:RDF>
</x:xmpmeta>
                                                                                                    
                                                                                                    
                                                                                                    
                                                                                                    
                                                                                                    
                                                                                                    
                                                                                                    
                                                                                                    
                                                                                                    
                                                                                                    
                                                                                                    
                                                                                                    
                                                                                                    
                                                                                                    
                                                                                                    
                                                                                                    
                                                                                                    
                                                                                                    
                                                                                                    
                                                                                                    
                           
<?xpacket end="w"?></metadata>
<defs>
    <style>
      .cls-1 {
        fill: #3454f5;
        fill-rule: evenodd;
      }
    </style>
  </defs>
  <path id="Forma_1" data-name="Forma 1" class="cls-1" d="M282.772,901a9.133,9.133,0,0,0-9.226,8.964v0.095c0,0.188-.132.28-0.392,0.28h-0.822a0.312,0.312,0,0,0-.31.15,0.368,0.368,0,0,0,.091.363l2.237,3.443,0.014,0.018a0.3,0.3,0,0,0,.217.105,0.283,0.283,0,0,0,.237-0.141l2.209-3.408a0.384,0.384,0,0,0,.1-0.375,0.319,0.319,0,0,0-.321-0.155h-0.831a0.319,0.319,0,0,1-.392-0.375,7.187,7.187,0,1,1,7.185,7.045,7.27,7.27,0,0,1-3.031-.652,1.035,1.035,0,0,0-1.356.482,0.986,0.986,0,0,0,.5,1.323,9.341,9.341,0,0,0,3.892.838A9,9,0,1,0,282.772,901Zm-0.325,4.641a0.829,0.829,0,0,0-.839.819V909.9a1.363,1.363,0,0,0,.62,1.11l3.069,1.928a0.854,0.854,0,0,0,.454.13,0.842,0.842,0,0,0,.707-0.376,0.807,0.807,0,0,0-.251-1.132l-2.919-1.834V906.46A0.829,0.829,0,0,0,282.447,905.641Z" transform="translate(-272 -901)"/>
</svg>
