<svg xmlns="http://www.w3.org/2000/svg" width="10" height="8" viewBox="0 0 10 8">
  <metadata><?xpacket begin="﻿" id="W5M0MpCehiHzreSzNTczkc9d"?>
<x:xmpmeta xmlns:x="adobe:ns:meta/" x:xmptk="Adobe XMP Core 5.6-c140 79.160451, 2017/05/06-01:08:21        ">
   <rdf:RDF xmlns:rdf="http://www.w3.org/1999/02/22-rdf-syntax-ns#">
      <rdf:Description rdf:about=""/>
   </rdf:RDF>
</x:xmpmeta>
<?xpacket end="w"?></metadata>
<defs>
    <style>
      .cls-1 {
        fill: red;
        fill-rule: evenodd;
        rotate: 180;
      }
    </style>
  </defs>
  <path id="arrow" class="cls-1" d="M1759,179a1,1,0,1,1-1,1A1,1,0,0,1,1759,179Zm4,0a1,1,0,1,1-1,1A1,1,0,0,1,1763,179Zm4,0a1,1,0,1,1-1,1A1,1,0,0,1,1767,179Zm-2-3a1,1,0,1,1-1,1A1,1,0,0,1,1765,176Zm-4,0a1,1,0,1,1-1,1A1,1,0,0,1,1761,176Zm2-3a1,1,0,1,1-1,1A1,1,0,0,1,1763,173Z" transform="translate(-1758 -173)"/>
</svg>
