<svg xmlns="http://www.w3.org/2000/svg" width="14" height="18" viewBox="0 0 14 18">
  <metadata><?xpacket begin="﻿" id="W5M0MpCehiHzreSzNTczkc9d"?>
<x:xmpmeta xmlns:x="adobe:ns:meta/" x:xmptk="Adobe XMP Core 5.6-c140 79.160451, 2017/05/06-01:08:21        ">
   <rdf:RDF xmlns:rdf="http://www.w3.org/1999/02/22-rdf-syntax-ns#">
      <rdf:Description rdf:about=""/>
   </rdf:RDF>
</x:xmpmeta>
<?xpacket end="w"?></metadata>
<defs>
    <style>
      .cls-1 {
        fill: #3454f5;
        fill-rule: evenodd;
      }
    </style>
  </defs>
  <path id="Delete" class="cls-1" d="M831.209,176.308H828.99A2.447,2.447,0,0,0,826.571,174h-3.143a2.447,2.447,0,0,0-2.418,2.308h-2.22a0.8,0.8,0,0,0-.79.806v1.074a0.8,0.8,0,0,0,.79.805h12.419a0.8,0.8,0,0,0,.791-0.805v-1.074A0.8,0.8,0,0,0,831.209,176.308Zm-8.608,0a0.848,0.848,0,0,1,.827-0.7h3.143a0.848,0.848,0,0,1,.828.7h-4.8Zm7.629,3.7H819.76a0.742,0.742,0,0,0-.549.24,0.787,0.787,0,0,0-.207.575l0.472,10.389a0.826,0.826,0,0,0,.8.79h9.428a0.825,0.825,0,0,0,.805-0.79l0.473-10.389a0.788,0.788,0,0,0-.208-0.575A0.742,0.742,0,0,0,830.23,180.006Zm-7.457,8.781a0.782,0.782,0,1,1-1.563,0v-5.836a0.782,0.782,0,1,1,1.563,0v5.836Zm3.021,0a0.782,0.782,0,1,1-1.563,0v-5.836a0.782,0.782,0,1,1,1.563,0v5.836Zm3.021,0a0.782,0.782,0,1,1-1.563,0v-5.836a0.782,0.782,0,1,1,1.563,0v5.836Z" transform="translate(-818 -174)"/>
</svg>
