<?xml version="1.0" encoding="utf-8"?>
<!-- Generator: Adobe Illustrator 21.0.0, SVG Export Plug-In . SVG Version: 6.00 Build 0)  -->
<svg version="1.1" xmlns="http://www.w3.org/2000/svg" xmlns:xlink="http://www.w3.org/1999/xlink" x="0px" y="0px"
	 viewBox="0 0 512 512" style="enable-background:new 0 0 512 512;" xml:space="preserve">
<style type="text/css">
	.st0{enable-background:new    ;}
	.st1{fill-rule:evenodd;clip-rule:evenodd;fill:#3454F5;}
	.st2{fill-rule:evenodd;clip-rule:evenodd;fill:#FFFFFF;}
</style>
<g id="Background_1_" class="st0">
	<g id="Background">
		<g>
			<rect class="st1" width="512" height="512"/>
		</g>
	</g>
</g>
<g id="ARKx_1_" class="st0">
	<g id="ARKx">
		<g>
			<path class="st2" d="M191.1,174.3H212l2.2,8.7h20.1l-21.4-73h-22.5L169,183H189L191.1,174.3z M201.6,137.1l3.9,16.8h-7.9
				L201.6,137.1z M256.1,165.6c0-0.7,0.1-1.2,0.3-1.5c0.2-0.3,0.6-0.4,1.2-0.1c0.6,0.3,1.4,1.1,2.6,2.4c1.2,1.3,2.7,3.3,4.6,6
				c1.9,2.7,4.2,6.2,7.1,10.6h21.6l-15.1-25.4c2.5-2.8,4.5-5.9,5.9-9.3c1.4-3.5,2.1-7,2.1-10.5c0.1-3.6-0.5-7-1.8-10.5
				c-1.2-3.4-3.1-6.5-5.7-9.2c-2.2-2.3-4.7-4.3-7.7-5.8c-3-1.5-6-2.3-9-2.3H236v73h20.1V165.6z M255.9,129.9h4.6
				c1.8,0,3.4,0.7,4.7,2c1.3,1.3,1.9,3,1.9,4.9c0,1.9-0.6,3.6-1.9,5c-1.3,1.4-2.8,2.1-4.7,2.1h-4.6V129.9z M316.7,157l12.7,26H352
				l-17.8-36.6L352,110h-22.6l-12.7,26v-26h-20v73h20V157z M286.3,298.8l66-92.8h-70.8l-29.6,54.5L221.3,206h-19.1l-28.7,35.4
				L288.3,404H360L286.3,298.8z M140,404h72.7l30.6-49.7h-67.9L140,404z"/>
		</g>
	</g>
</g>
</svg>
